<?xml version="1.0" standalone="no"?><!DOCTYPE svg PUBLIC "-//W3C//DTD SVG 1.1//EN" "http://www.w3.org/Graphics/SVG/1.1/DTD/svg11.dtd"><svg t="1693445254561" class="icon" viewBox="0 0 1024 1024" version="1.1" xmlns="http://www.w3.org/2000/svg" p-id="1543" xmlns:xlink="http://www.w3.org/1999/xlink" width="200" height="200"><path d="M737 269.42A236 236 0 0 0 571.45 202c-129.29 0-234.22 103.1-234.22 230.41 0 158.31 179.25 322 179.25 322 34.38 31.94 77.47 29.36 108.37-0.14 0 0 180.83-154.93 180.83-321.86A228.31 228.31 0 0 0 737 269.42z" fill="#FCBFB9" p-id="1544"></path><path d="M510.67 771.89c-26.32 0-51.46-10.44-72.83-30.26-3-2.75-47.83-44.17-93.11-105.52-27.19-36.84-48.93-73.3-64.6-108.38-20.17-45.15-30.4-88.32-30.4-128.32 0-69 27.29-133.83 76.84-182.57 49.41-48.58 115-75.34 184.82-75.34h0.61a263.41 263.41 0 0 1 184.32 75.28 255.87 255.87 0 0 1 76.9 182.63c0 42-10.31 86.34-30.64 131.92-15.86 35.54-37.85 71.95-65.37 108.23-44.24 58.32-88.1 97.1-93.86 102.1-20.17 19-45.3 29.76-70.84 30.22z m0.78-575.39c-55.32 0-107.26 21.15-146.31 59.56s-60.41 89.22-60.41 143.35c0 144.17 168.6 300.15 170.3 301.71l0.17 0.15c22.46 20.86 48.87 20.91 70.66 0.11l1.1-1c1.69-1.46 171.22-148.87 171.22-301a201.91 201.91 0 0 0-60.39-143.34A207.31 207.31 0 0 0 511.9 196.5z m-0.07 320.75a111.17 111.17 0 1 1 111.17-111.17 111.3 111.3 0 0 1-111.17 111.17z m0-167.34a56.17 56.17 0 1 0 56.17 56.17 56.23 56.23 0 0 0-56.17-56.17z" fill="#333333" p-id="1545" data-spm-anchor-id="a313x.collections_detail.0.i0.79463a810UeOsY" class=""></path><path d="M799.44 877h-576a81.72 81.72 0 0 1-74.1-116.18l39.57-85.07A82 82 0 0 1 263 628.5h125.71a27.5 27.5 0 1 1 0 55H263a26.79 26.79 0 0 0-24.19 15.5l-39.57 85a26.72 26.72 0 0 0 24.23 38h576a26.72 26.72 0 0 0 24.23-38l-39.6-85a26.79 26.79 0 0 0-24.22-15.45H639.29a27.5 27.5 0 0 1 0-55h120.59A82 82 0 0 1 834 675.76l39.57 85.06A81.72 81.72 0 0 1 799.44 877z" fill="#333333" p-id="1546"></path></svg>